<svg width="49" height="38" viewBox="0 0 49 38" fill="none" xmlns="http://www.w3.org/2000/svg">
<path d="M18 33L24.2222 7H46L38.2222 33H18Z" fill="#034EA1" stroke="#034EA1"/>
<path d="M18 28.2539L17.1738 33H3.90234L4.72852 28.2539H18ZM10.5117 7.40625L6.06445 33H0.0527344L4.48242 7.40625H10.5117ZM18.1406 17.5664L17.3496 22.1543H5.7832L6.5918 17.5664H18.1406ZM21.6562 7.40625L20.8301 12.1699H7.50586L8.34961 7.40625H21.6562Z" fill="#0095DB"/>
<path d="M35.0859 24.3516L40.9746 24.2812C40.8105 26.2266 40.1836 27.8848 39.0938 29.2559C38.0156 30.6152 36.6504 31.6465 34.998 32.3496C33.3574 33.0527 31.6055 33.3867 29.7422 33.3516C27.9727 33.3164 26.4844 32.9531 25.2773 32.2617C24.0703 31.5586 23.1211 30.6211 22.4297 29.4492C21.7383 28.2656 21.2812 26.9414 21.0586 25.4766C20.8359 24 20.8242 22.4766 21.0234 20.9062L21.2168 19.5176C21.4512 17.8887 21.8848 16.3242 22.5176 14.8242C23.1504 13.3125 23.9766 11.9648 24.9961 10.7812C26.0273 9.59766 27.252 8.67188 28.6699 8.00391C30.0879 7.32422 31.6934 7.00195 33.4863 7.03711C35.3965 7.07227 37.0195 7.4707 38.3555 8.23242C39.7031 8.99414 40.7461 10.0605 41.4844 11.4316C42.2344 12.8027 42.6562 14.4199 42.75 16.2832L36.7559 16.2656C36.791 15.3633 36.7031 14.5898 36.4922 13.9453C36.2812 13.3008 35.9062 12.8027 35.3672 12.4512C34.8398 12.0879 34.0957 11.8887 33.1348 11.8535C32.0918 11.8184 31.2188 12.0352 30.5156 12.5039C29.8242 12.9609 29.2617 13.5762 28.8281 14.3496C28.3945 15.123 28.0605 15.9609 27.8262 16.8633C27.6035 17.7656 27.4336 18.6387 27.3164 19.4824L27.1406 20.9238C27.0586 21.6152 26.9824 22.3945 26.9121 23.2617C26.8418 24.1172 26.8711 24.9434 27 25.7402C27.1289 26.5254 27.4277 27.1816 27.8965 27.709C28.3652 28.2363 29.0977 28.5176 30.0938 28.5527C31.0312 28.5762 31.8457 28.4297 32.5371 28.1133C33.2285 27.7852 33.7852 27.3047 34.207 26.6719C34.6406 26.0273 34.9336 25.2539 35.0859 24.3516Z" fill="white"/>
</svg>
